
<svg class="svgFloor" width="437px" height="684px" viewBox="0 0 437 684" version="1.1" xmlns="http://www.w3.org/2000/svg" xmlns:xlink="http://www.w3.org/1999/xlink">
    <g id="Page-1" stroke="none" stroke-width="1" fill="none" fill-rule="evenodd">
        <g id="1-floor" transform="translate(-421.000000, -39.000000)">
            <g id="1" transform="translate(421.000000, 39.000000)">
                <g id="extra" transform="translate(154.646119, 0.000000)" fill="#1E1E1E">
                    <rect id="1" x="0" y="0" width="127.707763" fill="none" height="63.720524"></rect>
                    <rect id="2" x="0" y="620" width="127.707763" fill="none" height="64"></rect>
                </g>
                <path d="M281.356164,619 L155.643836,619 L155.643836,495.666667 L124.714612,495.666667 L124.714612,553.354839 L63.8538813,553.354839 L63.8538813,587.172043 L0.997716895,587.172043 L0.997716895,401.177419 L32.9246575,401.177419 L32.9246575,276.849462 L0.997716895,276.849462 L0.997716895,92.844086 L63.8538813,92.844086 L63.8538813,124.672043 L124.714612,124.672043 L124.714612,185.344086 L155.643836,185.344086 L155.643836,64 L281.356164,64 L281.356164,185.344086 L312.285388,185.344086 L312.285388,124.672043 L373.146119,124.672043 L373.146119,92.844086 L436.002283,92.844086 L436.002283,276.849462 L404.076283,276.849086 L404.075342,401.177419 L436.002283,401.177419 L436.002283,587.172043 L371.150685,587.172043 L371.150685,553.354839 L312.285388,553.354839 L312.285388,495.666667 L281.356164,495.666667 L281.356164,619 Z" id="Combined-Shape" stroke="#1E8252" stroke-width="2"></path>
                <g id="ledders" transform="translate(125.712329, 124.454148)">
                    <g id="blue-ledder">
                        <rect id="Rectangle-Copy" fill="#007EFF" x="0" y="0" width="28.93379" height="60.7336245"></rect>
                        <g id="Group" transform="translate(0.498858, 6.471616)" stroke="#FFFFFF" stroke-linecap="square" stroke-width="2">
                            <path d="M20.4531963,0.497816594 L27.4372146,0.497816594" id="Line-2-Copy-36"></path>
                            <path d="M10.4760274,10.4541485 L20.4531963,10.4541485" id="Line-2-Copy-36"></path>
                            <path d="M0.498858447,21.4061135 L10.4760274,21.4061135" id="Line-2-Copy-38"></path>
                            <path d="M15.4750304,5.47598253 L25.4313623,5.47598253" id="Line-2-Copy-36" transform="translate(20.453196, 5.475983) rotate(90.000000) translate(-20.453196, -5.475983) "></path>
                            <path d="M5.49786146,15.4323144 L15.4541933,15.4323144" id="Line-2-Copy-37" transform="translate(10.476027, 15.432314) rotate(90.000000) translate(-10.476027, -15.432314) "></path>
                            <path d="M20.4531963,20.4104803 L27.4372146,20.4104803" id="Line-2-Copy-36"></path>
                            <path d="M10.4760274,30.3668122 L20.4531963,30.3668122" id="Line-2-Copy-36"></path>
                            <path d="M0.498858447,41.3187773 L10.4760274,41.3187773" id="Line-2-Copy-38"></path>
                            <path d="M15.4750304,25.3886463 L25.4313623,25.3886463" id="Line-2-Copy-36" transform="translate(20.453196, 25.388646) rotate(90.000000) translate(-20.453196, -25.388646) "></path>
                            <path d="M5.49786146,35.3449782 L15.4541933,35.3449782" id="Line-2-Copy-37" transform="translate(10.476027, 35.344978) rotate(90.000000) translate(-10.476027, -35.344978) "></path>
                        </g>
                    </g>
                    <g id="green-ledder" transform="translate(0.000000, 373.362445)">
                        <rect id="Rectangle-Copy" fill="#1E8234" x="0" y="0" width="28.93379" height="57.7467249"></rect>
                        <g id="Group" transform="translate(0.498858, 5.475983)" stroke="#FFFFFF" stroke-linecap="square" stroke-width="2">
                            <path d="M20.4531963,0.497816594 L27.4372146,0.497816594" id="Line-2-Copy-36"></path>
                            <path d="M10.4760274,10.4541485 L20.4531963,10.4541485" id="Line-2-Copy-36"></path>
                            <path d="M0.498858447,21.4061135 L10.4760274,21.4061135" id="Line-2-Copy-38"></path>
                            <path d="M15.4750304,5.47598253 L25.4313623,5.47598253" id="Line-2-Copy-36" transform="translate(20.453196, 5.475983) rotate(90.000000) translate(-20.453196, -5.475983) "></path>
                            <path d="M5.49786146,15.4323144 L15.4541933,15.4323144" id="Line-2-Copy-37" transform="translate(10.476027, 15.432314) rotate(90.000000) translate(-10.476027, -15.432314) "></path>
                            <path d="M20.4531963,20.4104803 L27.4372146,20.4104803" id="Line-2-Copy-36"></path>
                            <path d="M10.4760274,30.3668122 L20.4531963,30.3668122" id="Line-2-Copy-36"></path>
                            <path d="M0.498858447,41.3187773 L10.4760274,41.3187773" id="Line-2-Copy-38"></path>
                            <path d="M15.4750304,25.3886463 L25.4313623,25.3886463" id="Line-2-Copy-36" transform="translate(20.453196, 25.388646) rotate(90.000000) translate(-20.453196, -25.388646) "></path>
                            <path d="M5.49786146,35.3449782 L15.4541933,35.3449782" id="Line-2-Copy-37" transform="translate(10.476027, 35.344978) rotate(90.000000) translate(-10.476027, -35.344978) "></path>
                        </g>
                    </g>
                    <g id="red-yellow" transform="translate(156.641553, 373.362445)">
                        <rect id="Rectangle-Copy" fill="#EE1E1E" x="0" y="0" width="28.93379" height="57.7467249"></rect>
                        <g id="Group" transform="translate(0.498858, 5.475983)" stroke="#FFFFFF" stroke-linecap="square" stroke-width="2">
                            <path d="M20.4531963,0.497816594 L27.4372146,0.497816594" id="Line-2-Copy-36"></path>
                            <path d="M10.4760274,10.4541485 L20.4531963,10.4541485" id="Line-2-Copy-36"></path>
                            <path d="M0.498858447,21.4061135 L10.4760274,21.4061135" id="Line-2-Copy-38"></path>
                            <path d="M15.4750304,5.47598253 L25.4313623,5.47598253" id="Line-2-Copy-36" transform="translate(20.453196, 5.475983) rotate(90.000000) translate(-20.453196, -5.475983) "></path>
                            <path d="M5.49786146,15.4323144 L15.4541933,15.4323144" id="Line-2-Copy-37" transform="translate(10.476027, 15.432314) rotate(90.000000) translate(-10.476027, -15.432314) "></path>
                            <path d="M20.4531963,20.4104803 L27.4372146,20.4104803" id="Line-2-Copy-36"></path>
                            <path d="M10.4760274,30.3668122 L20.4531963,30.3668122" id="Line-2-Copy-36"></path>
                            <path d="M0.498858447,41.3187773 L10.4760274,41.3187773" id="Line-2-Copy-38"></path>
                            <path d="M15.4750304,25.3886463 L25.4313623,25.3886463" id="Line-2-Copy-36" transform="translate(20.453196, 25.388646) rotate(90.000000) translate(-20.453196, -25.388646) "></path>
                            <path d="M5.49786146,35.3449782 L15.4541933,35.3449782" id="Line-2-Copy-37" transform="translate(10.476027, 35.344978) rotate(90.000000) translate(-10.476027, -35.344978) "></path>
                        </g>
                    </g>
                    <g id="yellow-ledder" transform="translate(156.641553, 0.000000)">
                        <rect id="Rectangle-Copy" fill="#FED71A" x="0" y="0" width="28.93379" height="60.7336245"></rect>
                        <g id="Group" transform="translate(0.498858, 6.471616)" stroke="#FFFFFF" stroke-linecap="square" stroke-width="2">
                            <path d="M20.4531963,0.497816594 L27.4372146,0.497816594" id="Line-2-Copy-36"></path>
                            <path d="M10.4760274,10.4541485 L20.4531963,10.4541485" id="Line-2-Copy-36"></path>
                            <path d="M0.498858447,21.4061135 L10.4760274,21.4061135" id="Line-2-Copy-38"></path>
                            <path d="M15.4750304,5.47598253 L25.4313623,5.47598253" id="Line-2-Copy-36" transform="translate(20.453196, 5.475983) rotate(90.000000) translate(-20.453196, -5.475983) "></path>
                            <path d="M5.49786146,15.4323144 L15.4541933,15.4323144" id="Line-2-Copy-37" transform="translate(10.476027, 15.432314) rotate(90.000000) translate(-10.476027, -15.432314) "></path>
                            <path d="M20.4531963,20.4104803 L27.4372146,20.4104803" id="Line-2-Copy-36"></path>
                            <path d="M10.4760274,30.3668122 L20.4531963,30.3668122" id="Line-2-Copy-36"></path>
                            <path d="M0.498858447,41.3187773 L10.4760274,41.3187773" id="Line-2-Copy-38"></path>
                            <path d="M15.4750304,25.3886463 L25.4313623,25.3886463" id="Line-2-Copy-36" transform="translate(20.453196, 25.388646) rotate(90.000000) translate(-20.453196, -25.388646) "></path>
                            <path d="M5.49786146,35.3449782 L15.4541933,35.3449782" id="Line-2-Copy-37" transform="translate(10.476027, 35.344978) rotate(90.000000) translate(-10.476027, -35.344978) "></path>
                        </g>
                    </g>
                </g>
                <g id="lines" transform="translate(0.498858, 64.218341)" stroke="#1E8252" stroke-linecap="square" stroke-width="2">
                    <path d="M250.925799,121.965066 L280.857306,121.965066" id="Line-2-Copy"></path>
                    <path d="M249.928082,153.825328 L311.78653,153.825328" id="Line-2-Copy-7"></path>
                    <path d="M372.64726,132.917031 L435.503425,132.917031" id="Line-2-Copy-23"></path>
                    <path d="M277.864155,186.681223 L311.78653,186.681223" id="Line-2-Copy-9"></path>
                    <path d="M249.928082,213.563319 L296.820776,213.563319" id="Line-2-Copy-10"></path>
                    <path d="M329.745434,213.563319 L403.576484,213.563319" id="Line-2-Copy-14"></path>
                    <path d="M311.78653,213.563319 L317.772831,213.563319" id="Line-2-Copy-15"></path>
                    <path d="M249.928082,247.414847 L311.78653,247.414847" id="Line-2-Copy-11"></path>
                    <path d="M249.928082,277.283843 L317.772831,277.283843" id="Line-2-Copy-12"></path>
                    <path d="M329.745434,277.283843 L403.576484,277.283843" id="Line-2-Copy-16"></path>
                    <path d="M249.928082,308.148472 L311.78653,308.148472" id="Line-2-Copy-13"></path>
                    <path d="M249.928082,338.017467 L403.576484,338.017467" id="Line-2-Copy-8"></path>
                    <path d="M249.928082,369.877729 L339.722603,369.877729" id="Line-2-Copy-17"></path>
                    <path d="M370.651826,369.877729 L434.505708,369.877729" id="Line-2-Copy-18"></path>
                    <path d="M329.745434,401.737991 L370.651826,401.737991" id="Line-2-Copy-19"></path>
                    <path d="M370.651826,431.606987 L435.503425,431.606987" id="Line-2-Copy-21"></path>
                    <path d="M370.651826,490.349345 L435.503425,490.349345" id="Line-2-Copy-22"></path>
                    <path d="M311.78653,401.737991 L316.775114,401.737991" id="Line-2-Copy-20"></path>
                    <path d="M155.144977,121.965066 L185.076484,121.965066" id="Line-2-Copy-2"></path>
                    <path d="M124.215753,153.825328 L185.076484,153.825328" id="Line-2-Copy-3"></path>
                    <path d="M32.4257991,213.563319 L185.076484,213.563319" id="Line-2-Copy-5"></path>
                    <path d="M32.4257991,338.017467 L185.076484,338.017467" id="Line-2-Copy-6"></path>
                    <path d="M63.3550228,369.877729 L132.197489,369.877729" id="Line-2-Copy-24"></path>
                    <path d="M0.498858447,401.737991 L63.3550228,401.737991" id="Line-2-Copy-26"></path>
                    <path d="M83.3093607,432.60262 L124.215753,432.60262" id="Line-2-Copy-29"></path>
                    <path d="M93.2865297,401.737991 L124.215753,401.737991" id="Line-2-Copy-28"></path>
                    <path d="M0.498858447,432.60262 L71.336758,432.60262" id="Line-2-Copy-27"></path>
                    <path d="M145.167808,369.877729 L185.076484,369.877729" id="Line-2-Copy-25"></path>
                    <path d="M124.215753,184.689956 L154.14726,184.689956" id="Line-2-Copy-4"></path>
                    <path d="M249.928082,71.1877729 L249.928082,121.965066" id="Line-Copy-4"></path>
                    <path d="M311.78653,207.58952 L311.78653,247.414847" id="Line-Copy-13"></path>
                    <path d="M63.3550228,484.375546 L63.3550228,490.349345" id="Line-Copy-31"></path>
                    <path d="M63.3550228,423.641921 L63.3550228,450.524017" id="Line-Copy-32"></path>
                    <path d="M63.3550228,392.777293 L63.3550228,409.703057" id="Line-Copy-33"></path>
                    <path d="M124.215753,401.737991 L124.215753,432.60262" id="Line-Copy-39"></path>
                    <path d="M93.2865297,401.737991 L93.2865297,489.353712" id="Line-Copy-38"></path>
                    <path d="M63.3550228,338.017467 L63.3550228,378.838428" id="Line-Copy-34"></path>
                    <path d="M93.2865297,338.017467 L93.2865297,369.877729" id="Line-Copy-35"></path>
                    <path d="M123.218037,338.017467 L123.218037,369.877729" id="Line-Copy-36"></path>
                    <path d="M154.14726,338.017467 L154.14726,369.877729" id="Line-Copy-37"></path>
                    <path d="M339.722603,213.563319 L339.722603,225.510917" id="Line-Copy-18"></path>
                    <path d="M372.64726,197.633188 L372.64726,213.563319" id="Line-Copy-30"></path>
                    <path d="M339.722603,266.331878 L339.722603,287.240175" id="Line-Copy-19"></path>
                    <path d="M276.866438,338.017467 L276.866438,369.877729" id="Line-Copy-20"></path>
                    <path d="M339.722603,338.017467 L339.722603,369.877729" id="Line-Copy-21"></path>
                    <path d="M370.651826,338.017467 L370.651826,347.973799" id="Line-Copy-22"></path>
                    <path d="M339.722603,369.877729 L339.722603,379.834061" id="Line-Copy-25"></path>
                    <path d="M339.722603,391.781659 L339.722603,401.737991" id="Line-Copy-26"></path>
                    <path d="M311.78653,401.737991 L311.78653,431.606987" id="Line-Copy-27"></path>
                    <path d="M370.651826,360.917031 L370.651826,379.834061" id="Line-Copy-23"></path>
                    <path d="M370.651826,393.772926 L370.651826,431.606987" id="Line-Copy-24"></path>
                    <path d="M311.78653,153.825328 L311.78653,164.777293" id="Line-Copy-15"></path>
                    <path d="M311.78653,176.724891 L311.78653,195.641921" id="Line-Copy-16"></path>
                    <path d="M277.864155,154.820961 L277.864155,213.563319" id="Line-Copy-17"></path>
                    <path d="M372.64726,61.231441 L372.64726,102.052402" id="Line-Copy-28"></path>
                    <path d="M372.64726,114.995633 L372.64726,184.689956" id="Line-Copy-29"></path>
                    <path d="M311.78653,258.366812 L311.78653,338.017467" id="Line-Copy-14"></path>
                    <path d="M249.928082,153.825328 L249.928082,338.017467" id="Line-Copy-12"></path>
                    <path d="M249.928082,0.497816594 L249.928082,60.2358079" id="Line-Copy-6"></path>
                    <path d="M185.076484,71.1877729 L185.076484,121.965066" id="Line-Copy-5"></path>
                    <path d="M185.076484,153.825328 L185.076484,295.20524" id="Line-Copy-9"></path>
                    <path d="M124.215753,122.960699 L124.215753,184.689956" id="Line-Copy-8"></path>
                    <path d="M154.14726,184.689956 L154.14726,213.563319" id="Line-Copy-10"></path>
                    <path d="M185.076484,328.061135 L185.076484,338.017467" id="Line-Copy-11"></path>
                    <path d="M185.076484,0.497816594 L185.076484,60.2358079" id="Line-Copy-7"></path>
                </g>
                <g id="classes" transform="translate(0.997717, 94.585153)">
                    <g id="F128" transform="translate(371.150685, 460.978166)">
                        <rect id="128" fill="#FFFFFF" opacity="0.1" x="0" y="0" width="62.8561644" height="31.860262"></rect>
                        <text id="Kitchen" font-family="AdventPro-Regular, Advent Pro" font-size="14" font-weight="normal" fill="#D0D0D0">
                            <tspan x="11.8962237" y="18.9737991">Kitchen</tspan>
                        </text>
                    </g>
                    <g id="F127" transform="translate(312.285388, 372.366812)">
                        <path d="M0,86.6200873 L0,0 L56.869863,0 L56.869863,29.8689956 L121.721461,29.8689956 L121.721461,86.6200873 L56.869863,86.6200873 L0,86.6200873 Z" id="127" fill="#FFFFFF" opacity="0.1"></path>
                        <text id="Management-Team" font-family="AdventPro-Regular, Advent Pro" font-size="14" font-weight="normal" fill="#D0D0D0">
                            <tspan x="24.7612968" y="53.8209607">Management</tspan>
                            <tspan x="45.2922968" y="69.8209607">Team</tspan>
                        </text>
                    </g>
                    <g id="F126" transform="translate(371.150685, 340.506550)">
                        <rect id="Rectangle" fill="#FFFFFF" opacity="0.1" x="0" y="0" width="62.8561644" height="59.7379913"></rect>
                        <text id="126" font-family="AdventPro-Regular, Advent Pro" font-size="14" font-weight="normal" fill="#D0D0D0">
                            <tspan x="16.2749406" y="26.9388646">Shool</tspan>
                            <tspan x="16.7579406" y="42.9388646">Office</tspan>
                        </text>
                    </g>
                    <g id="F125" transform="translate(371.150685, 308.646288)" fill="#FFFFFF" opacity="0.1">
                        <rect id="125" x="0" y="0" width="62.8561644" height="29.8689956"></rect>
                    </g>
                    <g id="F124" transform="translate(340.221461, 308.646288)" fill="#FFFFFF" opacity="0.1">
                        <rect id="124" x="0" y="0" width="28.93379" height="62.7248908"></rect>
                    </g>
                    <g id="F123" transform="translate(277.365297, 308.646288)" fill="#FFFFFF" opacity="0.1">
                        <rect id="123" x="0" y="0" width="60.8607306" height="29.8689956"></rect>
                    </g>
                    <g id="F122" transform="translate(250.426941, 278.777293)" fill="#FFFFFF" opacity="0.1">
                        <rect id="122" x="0" y="0" width="59.8630137" height="27.8777293"></rect>
                    </g>
                    <g id="F121" transform="translate(312.285388, 247.912664)" fill="#FFFFFF" opacity="0.1">
                        <path d="M0,58.7423581 L0,0 L25.9406393,0 L25.9406393,9.95633188 L27.9360731,9.95633188 L27.9360731,0 L89.7945205,0 L89.7945205,58.7423581 L27.9360731,58.7423581 L0,58.7423581 Z" id="121"></path>
                    </g>
                    <g id="F120" transform="translate(250.426941, 247.912664)" fill="#FFFFFF" opacity="0.1">
                        <rect id="120" x="0" y="0" width="59.8630137" height="28.8733624"></rect>
                    </g>
                    <g id="F119" transform="translate(250.426941, 218.043668)" fill="#FFFFFF" opacity="0.100000001">
                        <rect id="119" x="0" y="0" width="59.8630137" height="27.8777293"></rect>
                    </g>
                    <g id="F118" transform="translate(312.285388, 184.192140)" fill="#FFFFFF" opacity="0.1">
                        <path d="M25.9406393,61.7292576 L0,61.7292576 L0,0 L25.9406393,0 L25.9406393,11.9475983 L27.9360731,11.9475983 L27.9360731,0 L89.7945205,0 L89.7945205,61.7292576 L27.9360731,61.7292576 L27.9360731,50.7772926 L25.9406393,50.7772926 L25.9406393,61.7292576 Z" id="118"></path>
                    </g>
                    <g id="F117" transform="translate(250.426941, 184.192140)" fill="#FFFFFF" opacity="0.1">
                        <rect id="117" x="0" y="0" width="59.8630137" height="31.860262"></rect>
                    </g>
                    <g id="F116" transform="translate(278.363014, 157.310044)" fill="#FFFFFF" opacity="0.1">
                        <rect id="116" x="0" y="0" width="31.9269406" height="24.8908297"></rect>
                    </g>
                    <g id="F115" transform="translate(278.363014, 124.454148)" fill="#FFFFFF" opacity="0.1">
                        <rect id="115" x="0" y="0" width="31.9269406" height="30.8646288"></rect>
                    </g>
                    <g id="F114" transform="translate(250.426941, 124.454148)" fill="#FFFFFF" opacity="0.1">
                        <rect id="114" x="0" y="0" width="25.9406393" height="57.7467249"></rect>
                    </g>
                    <g id="F113" transform="translate(373.146119, 103.545852)" fill="#FFFFFF" opacity="0.1">
                        <rect id="113" x="0" y="0" width="60.8607306" height="78.6550218"></rect>
                    </g>
                    <g id="F112" transform="translate(373.146119, 0.000000)" fill="#FFFFFF" opacity="0.1">
                        <rect id="112" x="0" y="0" width="60.8607306" height="101.554585"></rect>
                    </g>
                    <g id="F111" transform="translate(124.714612, 124.454148)" fill="#FFFFFF" opacity="0.100000001">
                        <path d="M0,28.8733624 L0,0 L58.8652968,0 L58.8652968,28.8733624 L58.8652968,57.7467249 L29.9315068,57.7467249 L29.9315068,28.8733624 L0,28.8733624 Z" id="111"></path>
                    </g>
                    <g id="F110">
                        <path d="M0,182.200873 L0,0 L61.8584475,0 L61.8584475,31.860262 L122.719178,31.860262 L122.719178,155.318777 L152.650685,155.318777 L152.650685,182.200873 L122.719178,182.200873 L0,182.200873 Z" id="110" fill="#FFFFFF" opacity="0.1"></path>
                        <text id="Maintenance" font-family="AdventPro-Regular, Advent Pro" font-size="14" font-weight="normal" fill="#D0D0D0">
                            <tspan x="32.5451735" y="101.611354">Maintenance</tspan>
                        </text>
                    </g>
                    <g id="F109" transform="translate(32.924658, 184.192140)">
                        <rect id="109" fill="#FFFFFF" opacity="0.1" x="0" y="0" width="150.655251" height="122.462882"></rect>
                        <text id="Cafeteria" font-family="AdventPro-Regular, Advent Pro" font-size="14" font-weight="normal" fill="#D0D0D0">
                            <tspan x="52.1277671" y="64.7729258">Cafeteria</tspan>
                        </text>
                    </g>
                    <g id="F108" transform="translate(123.716895, 308.646288)" fill="#FFFFFF" opacity="0.1">
                        <rect id="108" x="0" y="0" width="28.93379" height="29.8689956"></rect>
                    </g>
                    <g id="F107" transform="translate(93.785388, 308.646288)" fill="#FFFFFF" opacity="0.1">
                        <rect id="107" x="0" y="0" width="27.9360731" height="29.8689956"></rect>
                    </g>
                    <g id="F106" transform="translate(63.853881, 308.646288)" fill="#FFFFFF" opacity="0.100000001">
                        <rect id="106" x="0" y="0" width="27.9360731" height="29.8689956"></rect>
                    </g>
                    <g id="F105" transform="translate(0.997717, 308.646288)">
                        <rect id="105" fill="#FFFFFF" opacity="0.1" x="0" y="0" width="60.8607306" height="61.7292576"></rect>
                        <text id="Medical-Room" font-family="AdventPro-Regular, Advent Pro" font-size="14" font-weight="normal" fill="#D0D0D0">
                            <tspan x="10.2143653" y="27.9344978">Medical</tspan>
                            <tspan x="14.5613653" y="43.9344978">Room</tspan>
                        </text>
                    </g>
                    <g id="F104" transform="translate(0.997717, 372.366812)" fill="#FFFFFF" opacity="0.1">
                        <rect id="104" x="0" y="0" width="60.8607306" height="28.8733624"></rect>
                    </g>
                    <g id="F103" transform="translate(0.997717, 403.231441)">
                        <path d="M60.8607306,89.6069869 L0,89.6069869 L0,0 L60.8607306,0 L60.8607306,17.9213974 L62.8561644,17.9213974 L62.8561644,0 L90.7922374,0 L90.7922374,55.7554585 L62.8561644,55.7554585 L62.8561644,49.7816594 L60.8607306,49.7816594 L60.8607306,89.6069869 Z" id="103" fill="#FFFFFF" opacity="0.1"></path>
                        <text id="Library" font-family="AdventPro-Regular, Advent Pro" font-size="14" font-weight="normal" fill="#D0D0D0">
                            <tspan x="14.5216575" y="46.8515284">Library</tspan>
                        </text>
                    </g>
                    <g id="F102" transform="translate(93.785388, 372.366812)" fill="#FFFFFF" opacity="0.1">
                        <rect id="102" x="0" y="0" width="28.93379" height="28.8733624"></rect>
                    </g>
                    <g id="F101" transform="translate(93.785388, 403.231441)" fill="#FFFFFF" opacity="0.1">
                        <rect id="101" x="0" y="0" width="28.93379" height="55.7554585"></rect>
                    </g>
                </g>
            </g>
        </g>
    </g>
</svg>