<svg xmlns="http://www.w3.org/2000/svg" xmlns:xlink="http://www.w3.org/1999/xlink" width="438" height="687" class="svgFloor" version="1.1" viewBox="0 0 438 687"><g id="Page-1" fill="none" fill-rule="evenodd" stroke="none" stroke-width="1"><g id="3-floor" transform="translate(-421.000000, -35.000000)"><g id="3" transform="translate(421.500000, 36.000000)"><path id="Combined-Shape" stroke="#1E8252" stroke-width="2" d="M281.5,685 L155.5,685 L155.5,498 L124.5,498 L124.5,556 L63.5,556 L63.5,590 L0.5,590 L0.5,403 L32.5,403 L32.5,278 L0.5,278 L0.5,93 L63.5,93 L63.5,125 L124.5,125 L124.5,185 L155.5,185 L155.5,0 L281.5,0 L281.5,185 L312.5,185 L312.5,124 L373.5,124 L373.5,92 L436.5,92 L436.5,277 L404.5,277 L404.5,402 L436.5,402 L436.5,589 L373.5,589 L373.5,555 L312.5,555 L312.5,498 L281.5,498 L281.5,685 Z"/><g id="lines" stroke="#1E8252" stroke-linecap="square" stroke-width="2" transform="translate(0.000000, 124.500000)"><path id="Line-2-Copy-14" d="M156.5,403.5 L281.5,403.5"/><path id="Line-2-Copy-16" d="M156.5,373.5 L164.5,373.5"/><path id="Line-2-Copy-17" d="M177.5,373.5 L259.5,373.5"/><path id="Line-2-Copy-33" d="M281.5,309.5 L312.5,309.5"/><path id="Line-2-Copy-35" d="M123.5,309.5 L154.5,309.5"/><path id="Line-2-Copy-34" d="M281.5,277.5 L312.5,277.5"/><path id="Line-2-Copy-44" d="M344.5,277.5 L404.5,277.5"/><path id="Line-2-Copy-45" d="M344.5,310.5 L373.5,310.5"/><path id="Line-2-Copy-46" d="M373.5,373.5 L436.5,373.5"/><path id="Line-2-Copy-36" d="M123.5,277.5 L154.5,277.5"/><path id="Line-2-Copy-20" d="M1.5,341.5 L62.5,341.5"/><path id="Line-2-Copy-21" d="M32.5,278.5 L92.5,278.5"/><path id="Line-2-Copy-23" d="M85.5,216.5 L93.5,216.5"/><path id="Line-2-Copy-24" d="M33.5,216.5 L72.5,216.5"/><path id="Line-2-Copy-25" d="M33.5,153.5 L93.5,153.5"/><path id="Line-2-Copy-28" d="M0.5,60.5 L62.5,60.5"/><path id="Line-2-Copy-29" d="M155.5,28.5 L281.5,28.5"/><path id="Line-2-Copy-30" d="M155.5,60.5 L281.5,60.5"/><path id="Line-2-Copy-32" d="M281.5,122.5 L312.5,122.5"/><path id="Line-2-Copy-40" d="M373.5,60.5 L435.5,60.5"/><path id="Line-2-Copy-41" d="M345.5,122.5 L373.5,122.5"/><path id="Line-2-Copy-42" d="M345.5,152.5 L404.5,152.5"/><path id="Line-2-Copy-43" d="M345.5,247.5 L404.5,247.5"/><path id="Line-2-Copy-39" d="M281.5,152.5 L312.5,152.5"/><path id="Line-2-Copy-37" d="M124.5,122.5 L155.5,122.5"/><path id="Line-2-Copy-38" d="M124.5,153.5 L155.5,153.5"/><path id="Line-2-Copy-31" d="M155.5,91.5 L281.5,91.5"/><path id="Line-2-Copy-31" d="M155.5,341.5 L281.5,341.5"/><path id="Line-2-Copy-26" d="M63.5,132.5 L93.5,132.5"/><path id="Line-2-Copy-27" d="M63.5,111.5 L93.5,111.5"/><path id="Line-2-Copy-22" d="M64.5,309.5 L93.5,309.5"/><path id="Line-2-Copy-18" d="M271.5,373.5 L280.5,373.5"/><path id="Line-2-Copy-14" d="M172,389 L201,389" transform="translate(186.500000, 389.000000) rotate(90.000000) translate(-186.500000, -389.000000)"/><path id="Line-2-Copy-14" d="M29.5,397.5 L97.5,397.5" transform="translate(63.500000, 397.500000) rotate(90.000000) translate(-63.500000, -397.500000)"/><path id="Line-2-Copy-19" d="M54,341 L73,341" transform="translate(63.500000, 341.000000) rotate(90.000000) translate(-63.500000, -341.000000)"/><path id="Line-2-Copy-19" d="M54,341 L73,341" transform="translate(63.500000, 341.000000) rotate(90.000000) translate(-63.500000, -341.000000)"/><path id="Line-2-Copy-15" d="M235,388 L264,388" transform="translate(249.500000, 388.000000) rotate(90.000000) translate(-249.500000, -388.000000)"/><path id="Line-3" d="M63.5,319.5 L63.5,279.5"/><path id="Line-3-Copy" d="M93.5,309.5 L93.5,301.5"/><path id="Line-3-Copy-2" d="M93.5,288.5 L93.5,196.5"/><path id="Line-3-Copy-3" d="M72.5,216.5 L72.5,196.5"/><path id="Line-3-Copy-5" d="M72.5,183.5 L72.5,154.5"/><path id="Line-3-Copy-6" d="M63.5,37.5 L63.5,0.5"/><path id="Line-3-Copy-7" d="M63.5,68.5 L63.5,50.5"/><path id="Line-3-Copy-8" d="M63.5,153.5 L63.5,81.5"/><path id="Line-3-Copy-16" d="M312.5,132.5 L312.5,122.5"/><path id="Line-3-Copy-20" d="M373.5,27.5 L373.5,0.5"/><path id="Line-3-Copy-21" d="M373.5,78.5 L373.5,40.5"/><path id="Line-3-Copy-22" d="M373.5,152.5 L373.5,91.5"/><path id="Line-3-Copy-23" d="M344.5,132.5 L344.5,122.5"/><path id="Line-3-Copy-24" d="M344.5,256.5 L344.5,144.5"/><path id="Line-3-Copy-18" d="M312.5,152.5 L312.5,144.5"/><path id="Line-3-Copy-19" d="M124.5,153.5 L124.5,144.5"/><path id="Line-3-Copy-17" d="M124.5,132.5 L124.5,122.5"/><path id="Line-3-Copy-4" d="M93.5,183.5 L93.5,144.5"/><path id="Line-3-Copy-10" d="M155.5,341.5 L155.5,92.5"/><path id="Line-3-Copy-11" d="M281.5,340.5 L281.5,91.5"/><path id="Line-3-Copy-12" d="M312.5,309.5 L312.5,301.5"/><path id="Line-3-Copy-14" d="M123.5,309.5 L123.5,301.5"/><path id="Line-3-Copy-13" d="M312.5,288.5 L312.5,277.5"/><path id="Line-3-Copy-25" d="M344.5,288.5 L344.5,269.5"/><path id="Line-3-Copy-27" d="M344.5,310.5 L344.5,301.5"/><path id="Line-3-Copy-26" d="M373.5,330.5 L373.5,278.5"/><path id="Line-3-Copy-28" d="M373.5,392.5 L373.5,343.5"/><path id="Line-3-Copy-29" d="M373.5,430.5 L373.5,405.5"/><path id="Line-3-Copy-15" d="M123.5,288.5 L123.5,277.5"/><path id="Line-3-Copy-9" d="M93.5,132.5 L93.5,124.5"/></g><g id="ledders" transform="translate(125.500000, 123.000000)"><g id="blue-ledder" transform="translate(0.000000, 1.000000)"><rect id="Rectangle-Copy" width="29" height="60" x="0" y="0" fill="#007EFF"/><g id="Group" stroke="#FFF" stroke-linecap="square" stroke-width="2" transform="translate(0.500000, 8.500000)"><path id="Line-2-Copy-36" d="M19.5,0.5 L27.5,0.5"/><path id="Line-2-Copy-36" d="M9.5,10.5 L19.5,10.5"/><path id="Line-2-Copy-38" d="M0.5,21.5 L9.5,21.5"/><path id="Line-2-Copy-36" d="M14.5,5.5 L24.5,5.5" transform="translate(19.500000, 5.500000) rotate(90.000000) translate(-19.500000, -5.500000)"/><path id="Line-2-Copy-37" d="M4.5,15.5 L14.5,15.5" transform="translate(9.500000, 15.500000) rotate(90.000000) translate(-9.500000, -15.500000)"/><path id="Line-2-Copy-36" d="M19.5,20.5 L27.5,20.5"/><path id="Line-2-Copy-36" d="M9.5,30.5 L19.5,30.5"/><path id="Line-2-Copy-38" d="M0.5,41.5 L9.5,41.5"/><path id="Line-2-Copy-36" d="M14.5,25.5 L24.5,25.5" transform="translate(19.500000, 25.500000) rotate(90.000000) translate(-19.500000, -25.500000)"/><path id="Line-2-Copy-37" d="M4.5,35.5 L14.5,35.5" transform="translate(9.500000, 35.500000) rotate(90.000000) translate(-9.500000, -35.500000)"/></g></g><g id="yellow-ledder" transform="translate(157.000000, 0.000000)"><rect id="Rectangle-Copy" width="29" height="61" x="0" y="0" fill="#FED71A"/><g id="Group" stroke="#FFF" stroke-linecap="square" stroke-width="2" transform="translate(0.500000, 8.500000)"><path id="Line-2-Copy-36" d="M19.5,0.5 L27.5,0.5"/><path id="Line-2-Copy-36" d="M9.5,10.5 L19.5,10.5"/><path id="Line-2-Copy-38" d="M0.5,21.5 L9.5,21.5"/><path id="Line-2-Copy-36" d="M14.5,5.5 L24.5,5.5" transform="translate(19.500000, 5.500000) rotate(90.000000) translate(-19.500000, -5.500000)"/><path id="Line-2-Copy-37" d="M4.5,15.5 L14.5,15.5" transform="translate(9.500000, 15.500000) rotate(90.000000) translate(-9.500000, -15.500000)"/><path id="Line-2-Copy-36" d="M19.5,20.5 L27.5,20.5"/><path id="Line-2-Copy-36" d="M9.5,30.5 L19.5,30.5"/><path id="Line-2-Copy-38" d="M0.5,41.5 L9.5,41.5"/><path id="Line-2-Copy-36" d="M14.5,25.5 L24.5,25.5" transform="translate(19.500000, 25.500000) rotate(90.000000) translate(-19.500000, -25.500000)"/><path id="Line-2-Copy-37" d="M4.5,35.5 L14.5,35.5" transform="translate(9.500000, 35.500000) rotate(90.000000) translate(-9.500000, -35.500000)"/></g></g><g id="red-ledder" transform="translate(157.000000, 376.000000)"><rect id="Rectangle-Copy" width="29" height="57" x="0" y="0" fill="#EE1E1E"/><g id="Group" stroke="#FFF" stroke-linecap="square" stroke-width="2" transform="translate(0.500000, 7.500000)"><path id="Line-2-Copy-36" d="M19.5,0.5 L27.5,0.5"/><path id="Line-2-Copy-36" d="M9.5,10.5 L19.5,10.5"/><path id="Line-2-Copy-38" d="M0.5,21.5 L9.5,21.5"/><path id="Line-2-Copy-36" d="M14.5,5.5 L24.5,5.5" transform="translate(19.500000, 5.500000) rotate(90.000000) translate(-19.500000, -5.500000)"/><path id="Line-2-Copy-37" d="M4.5,15.5 L14.5,15.5" transform="translate(9.500000, 15.500000) rotate(90.000000) translate(-9.500000, -15.500000)"/><path id="Line-2-Copy-36" d="M19.5,20.5 L27.5,20.5"/><path id="Line-2-Copy-36" d="M9.5,30.5 L19.5,30.5"/><path id="Line-2-Copy-38" d="M0.5,41.5 L9.5,41.5"/><path id="Line-2-Copy-36" d="M14.5,25.5 L24.5,25.5" transform="translate(19.500000, 25.500000) rotate(90.000000) translate(-19.500000, -25.500000)"/><path id="Line-2-Copy-37" d="M4.5,35.5 L14.5,35.5" transform="translate(9.500000, 35.500000) rotate(90.000000) translate(-9.500000, -35.500000)"/></g></g><g id="green-ledder" transform="translate(0.000000, 376.000000)"><rect id="Rectangle-Copy" width="29" height="58" x="0" y="0" fill="#1E8252"/><g id="Group" stroke="#FFF" stroke-linecap="square" stroke-width="2" transform="translate(0.500000, 8.500000)"><path id="Line-2-Copy-36" d="M19.5,0.5 L27.5,0.5"/><path id="Line-2-Copy-36" d="M9.5,10.5 L19.5,10.5"/><path id="Line-2-Copy-38" d="M0.5,21.5 L9.5,21.5"/><path id="Line-2-Copy-36" d="M14.5,5.5 L24.5,5.5" transform="translate(19.500000, 5.500000) rotate(90.000000) translate(-19.500000, -5.500000)"/><path id="Line-2-Copy-37" d="M4.5,15.5 L14.5,15.5" transform="translate(9.500000, 15.500000) rotate(90.000000) translate(-9.500000, -15.500000)"/><path id="Line-2-Copy-36" d="M19.5,20.5 L27.5,20.5"/><path id="Line-2-Copy-36" d="M9.5,30.5 L19.5,30.5"/><path id="Line-2-Copy-38" d="M0.5,41.5 L9.5,41.5"/><path id="Line-2-Copy-36" d="M14.5,25.5 L24.5,25.5" transform="translate(19.500000, 25.500000) rotate(90.000000) translate(-19.500000, -25.500000)"/><path id="Line-2-Copy-37" d="M4.5,35.5 L14.5,35.5" transform="translate(9.500000, 35.500000) rotate(90.000000) translate(-9.500000, -35.500000)"/></g></g></g><g id="classes" transform="translate(1.500000, 93.000000)"><g id="room323" fill="#FFF" opacity=".1" transform="translate(344.000000, 310.000000)"><rect id="323" width="27" height="31" x="0" y="0"/></g><g id="room322" fill="#FFF" opacity=".1" transform="translate(155.000000, 406.000000)"><rect id="322" width="29" height="28" x="0" y="0"/></g><g id="room321" fill="#FFF" opacity=".1" transform="translate(249.000000, 406.000000)"><rect id="321" width="30" height="28" x="0" y="0"/></g><g id="room320" fill="#FFF" opacity=".1" transform="translate(186.000000, 406.000000)"><rect id="320" width="61" height="28" x="0" y="0"/></g><g id="room319" fill="#FFF" opacity=".1" transform="translate(63.000000, 165.000000)"><rect id="319" width="28" height="19" x="0" y="0"/></g><g id="room318" fill="#FFF" opacity=".1" transform="translate(63.000000, 144.000000)"><rect id="318" width="28" height="19" x="0" y="0"/></g><g id="room317" fill="#FFF" opacity=".1" transform="translate(344.000000, 155.000000)"><rect id="317" width="27" height="28" x="0" y="0"/></g><g id="WC316" transform="translate(63.000000, 311.000000)"><rect id="316" width="28" height="29" x="0" y="0" fill="#FFF" opacity=".1"/><text id="WC" fill="#D0D0D0" font-family="AdventPro-Regular, Advent Pro" font-size="14" font-weight="normal"><tspan x="5.299" y="17">WC</tspan></text></g><g id="WC315" transform="translate(281.000000, 310.000000)"><rect id="315" width="29" height="30" x="0" y="0" fill="#FFF" opacity=".1"/><text id="WC" fill="#D0D0D0" font-family="AdventPro-Regular, Advent Pro" font-size="14" font-weight="normal"><tspan x="5.299" y="18">WC</tspan></text></g><g id="WC314" transform="translate(123.000000, 310.000000)"><rect id="314" width="30" height="30" x="0" y="0" fill="#FFF" opacity=".1"/><text id="WC" fill="#D0D0D0" font-family="AdventPro-Regular, Advent Pro" font-size="14" font-weight="normal"><tspan x="6.299" y="18">WC</tspan></text></g><g id="WC313" transform="translate(281.000000, 155.000000)"><rect id="313" width="29" height="28" x="0" y="0" fill="#FFF" opacity=".1"/><text id="WC" fill="#D0D0D0" font-family="AdventPro-Regular, Advent Pro" font-size="14" font-weight="normal"><tspan x="6.299" y="17">WC</tspan></text></g><g id="WC312" transform="translate(124.000000, 155.000000)"><rect id="312" width="29" height="29" x="0" y="0" fill="#FFF" opacity=".1"/><text id="WC" fill="#D0D0D0" font-family="AdventPro-Regular, Advent Pro" font-size="14" font-weight="normal"><tspan x="6.299" y="17">WC</tspan></text></g><g id="M311" transform="translate(373.000000, 406.000000)"><rect id="311" width="61" height="89" x="0" y="0" fill="#FFF" opacity=".1"/><text id="M.311" fill="#D0D0D0" font-family="AdventPro-Regular, Advent Pro" font-size="14" font-weight="normal"><tspan x="19.31" y="48">M.311</tspan></text></g><g id="M310" transform="translate(373.000000, 310.000000)"><rect id="310" width="61" height="94" x="0" y="0" fill="#FFF" opacity=".1"/><text id="M.310" fill="#D0D0D0" font-family="AdventPro-Regular, Advent Pro" font-size="14" font-weight="normal"><tspan x="16.93" y="50">M.310</tspan></text></g><g id="M309" transform="translate(344.000000, 280.000000)"><rect id="309" width="58" height="28" x="0" y="0" fill="#FFF" opacity=".1"/><text id="M.309" fill="#D0D0D0" font-family="AdventPro-Regular, Advent Pro" font-size="14" font-weight="normal"><tspan x="13.082" y="17">M.309</tspan></text></g><g id="M308" transform="translate(344.000000, 185.000000)"><rect id="308" width="58" height="93" x="0" y="0" fill="#FFF" opacity=".1"/><text id="M.308" fill="#D0D0D0" font-family="AdventPro-Regular, Advent Pro" font-size="14" font-weight="normal"><tspan x="13.075" y="50">M.308</tspan></text></g><g id="M307" transform="translate(373.000000, 93.000000)"><rect id="307" width="61" height="90" x="0" y="0" fill="#FFF" opacity=".1"/><text id="M.307" fill="#D0D0D0" font-family="AdventPro-Regular, Advent Pro" font-size="14" font-weight="normal"><tspan x="15.299" y="48">M.307</tspan></text></g><g id="M306" transform="translate(373.000000, 0.000000)"><rect id="306" width="61" height="91" x="0" y="0" fill="#FFF" opacity=".1"/><text id="M.306" fill="#D0D0D0" font-family="AdventPro-Regular, Advent Pro" font-size="14" font-weight="normal"><tspan x="15.082" y="49">M.306</tspan></text></g><g id="M305" transform="translate(0.000000, 1.000000)"><rect id="305" width="61" height="90" x="0" y="0" fill="#FFF" opacity=".1"/><text id="M.305" fill="#D0D0D0" font-family="AdventPro-Regular, Advent Pro" font-size="14" font-weight="normal"><tspan x="14.827" y="48">M.305</tspan></text></g><g id="M304" transform="translate(0.000000, 93.000000)"><rect id="304" width="61" height="91" x="0" y="0" fill="#FFF" opacity=".1"/><text id="M.304" fill="#D0D0D0" font-family="AdventPro-Regular, Advent Pro" font-size="14" font-weight="normal"><tspan x="14.942" y="49">M.304</tspan></text></g><g id="M303" transform="translate(32.000000, 186.000000)"><rect id="303" width="38" height="61" x="0" y="0" fill="#FFF" opacity=".1"/><text id="M.303" fill="#D0D0D0" font-family="AdventPro-Regular, Advent Pro" font-size="14" font-weight="normal"><tspan x="3.327" y="34">M.303</tspan></text></g><g id="M303" transform="translate(32.000000, 249.000000)"><rect id="3031" width="59" height="60" x="0" y="0" fill="#FFF" opacity=".1"/><text id="M.303.1" fill="#D0D0D0" font-family="AdventPro-Regular, Advent Pro" font-size="14" font-weight="normal"><tspan x="12.024" y="33">M.303.1</tspan></text></g><g id="M302" transform="translate(0.000000, 311.000000)"><rect id="302" width="61" height="61" x="0" y="0" fill="#FFF" opacity=".1"/><text id="M.302" fill="#D0D0D0" font-family="AdventPro-Regular, Advent Pro" font-size="14" font-weight="normal"><tspan x="15.6" y="34">M.302</tspan></text></g><g id="M301" transform="translate(0.000000, 374.000000)"><rect id="301" width="61" height="122" x="0" y="0" fill="#FFF" opacity=".1"/><text id="M.301" fill="#D0D0D0" font-family="AdventPro-Regular, Advent Pro" font-size="14" font-weight="normal"><tspan x="16.93" y="64">M.301</tspan></text></g></g></g></g></g></svg>