<svg xmlns="http://www.w3.org/2000/svg" xmlns:xlink="http://www.w3.org/1999/xlink" width="438" height="687" class="svgFloor" version="1.1" viewBox="0 0 438 687"><g id="Page-1" fill="none" fill-rule="evenodd" stroke="none" stroke-width="1"><g id="4-floor" transform="translate(-457.000000, -37.000000)"><g id="4" transform="translate(457.500000, 38.000000)"><path id="Combined-Shape" stroke="#1E8252" stroke-width="2" d="M281.5,685 L155.5,685 L155.5,498 L124.5,498 L124.5,556 L63.5,556 L63.5,590 L0.5,590 L0.5,403 L32.5,403 L32.5,278 L0.5,278 L0.5,93 L63.5,93 L63.5,124 L124.5,124 L124.5,186 L155.5,186 L155.5,0 L281.5,0 L281.5,185 L312.5,185 L312.5,124 L373.5,124 L373.5,92 L436.5,92 L436.5,277 L404.5,277 L404.5,402 L436.5,402 L436.5,589 L373.5,589 L373.5,556 L312.5,556 L312.5,497 L281.5,497 L281.5,685 Z"/><g id="lines" stroke="#1E8252" stroke-linecap="square" stroke-width="2" transform="translate(0.000000, 123.500000)"><path id="Line" d="M63.5,1.5 L63.5,19.5"/><path id="Line-Copy-2" d="M63.5,30.5 L63.5,70.5"/><path id="Line-Copy-6" d="M95.5,0.5 L95.5,62.5"/><path id="Line-Copy-7" d="M63.5,83.5 L63.5,135.5"/><path id="Line-Copy-11" d="M63.5,145.5 L63.5,154.5"/><path id="Line-Copy-30" d="M126.5,124.5 L126.5,134.5"/><path id="Line-Copy-12" d="M94.5,123.5 L94.5,236.5"/><path id="Line-Copy-32" d="M155.5,62.5 L155.5,374.5"/><path id="Line-Copy-35" d="M281.5,61.5 L281.5,373.5"/><path id="Line-Copy-15" d="M94.5,249.5 L94.5,289.5"/><path id="Line-Copy-24" d="M126.5,249.5 L126.5,289.5"/><path id="Line-Copy-37" d="M313.5,249.5 L313.5,287.5"/><path id="Line-Copy-67" d="M313.5,300.5 L313.5,310.5"/><path id="Line-Copy-39" d="M313.5,196.5 L313.5,236.5"/><path id="Line-Copy-41" d="M313.5,145.5 L313.5,185.5"/><path id="Line-Copy-45" d="M373.5,0.5 L373.5,16.5"/><path id="Line-Copy-46" d="M373.5,52.5 L373.5,79.5"/><path id="Line-Copy-51" d="M344.5,122.5 L344.5,131.5"/><path id="Line-Copy-52" d="M344.5,144.5 L344.5,227.5"/><path id="Line-Copy-66" d="M344.5,240.5 L344.5,256.5"/><path id="Line-Copy-56" d="M344.5,269.5 L344.5,287.5"/><path id="Line-Copy-59" d="M373.5,279.5 L373.5,345.5"/><path id="Line-Copy-60" d="M373.5,358.5 L373.5,431.5"/><path id="Line-Copy-57" d="M344.5,300.5 L344.5,310.5"/><path id="Line-Copy-49" d="M373.5,92.5 L373.5,153.5"/><path id="Line-Copy-44" d="M313.5,122.5 L313.5,132.5"/><path id="Line-Copy-28" d="M126.5,197.5 L126.5,237.5"/><path id="Line-Copy-29" d="M126.5,145.5 L126.5,185.5"/><path id="Line-Copy-18" d="M94.5,301.5 L94.5,311.5"/><path id="Line-Copy-25" d="M126.5,301.5 L126.5,311.5"/><path id="Line-Copy-20" d="M63.5,332.5 L63.5,351.5"/><path id="Line-Copy-21" d="M63.5,365.5 L63.5,432.5"/><path id="Line-Copy-16" d="M63.5,279.5 L63.5,319.5"/><path id="Line-Copy" d="M32.5,-0.5 L32.5,61.5" transform="translate(32.500000, 30.500000) rotate(-90.000000) translate(-32.500000, -30.500000)"/><path id="Line-Copy-3" d="M68.5,57.5 L68.5,67.5" transform="translate(68.500000, 62.500000) rotate(-90.000000) translate(-68.500000, -62.500000)"/><path id="Line-Copy-4" d="M95.5,52.5 L95.5,72.5" transform="translate(95.500000, 62.500000) rotate(-90.000000) translate(-95.500000, -62.500000)"/><path id="Line-Copy-8" d="M48,139 L48,170" transform="translate(48.000000, 154.500000) rotate(-90.000000) translate(-48.000000, -154.500000)"/><path id="Line-Copy-9" d="M79,139 L79,170" transform="translate(79.000000, 154.500000) rotate(-90.000000) translate(-79.000000, -154.500000)"/><path id="Line-Copy-13" d="M53,176 L53,217" transform="translate(53.000000, 196.500000) rotate(-90.000000) translate(-53.000000, -196.500000)"/><path id="Line-Copy-65" d="M90,192 L90,201" transform="translate(90.000000, 196.500000) rotate(-90.000000) translate(-90.000000, -196.500000)"/><path id="Line-Copy-14" d="M63.5,248.5 L63.5,310.5" transform="translate(63.500000, 279.500000) rotate(-90.000000) translate(-63.500000, -279.500000)"/><path id="Line-Copy-17" d="M79,296 L79,327" transform="translate(79.000000, 311.500000) rotate(-90.000000) translate(-79.000000, -311.500000)"/><path id="Line-Copy-26" d="M141,297 L141,326" transform="translate(141.000000, 311.500000) rotate(-90.000000) translate(-141.000000, -311.500000)"/><path id="Line-Copy-36" d="M297.5,294.5 L297.5,326.5" transform="translate(297.500000, 310.500000) rotate(-90.000000) translate(-297.500000, -310.500000)"/><path id="Line-Copy-38" d="M297.5,262.5 L297.5,294.5" transform="translate(297.500000, 278.500000) rotate(-90.000000) translate(-297.500000, -278.500000)"/><path id="Line-Copy-58" d="M359,296 L359,325" transform="translate(359.000000, 310.500000) rotate(-90.000000) translate(-359.000000, -310.500000)"/><path id="Line-Copy-62" d="M354,354 L354,393" transform="translate(354.000000, 373.500000) rotate(-90.000000) translate(-354.000000, -373.500000)"/><path id="Line-Copy-63" d="M384.5,391.5 L384.5,413.5" transform="translate(384.500000, 402.500000) rotate(-90.000000) translate(-384.500000, -402.500000)"/><path id="Line-Copy-64" d="M422,388 L422,417" transform="translate(422.000000, 402.500000) rotate(-90.000000) translate(-422.000000, -402.500000)"/><path id="Line-Copy-61" d="M317.5,367.5 L317.5,379.5" transform="translate(317.500000, 373.500000) rotate(-90.000000) translate(-317.500000, -373.500000)"/><path id="Line-Copy-55" d="M374.5,248.5 L374.5,308.5" transform="translate(374.500000, 278.500000) rotate(-90.000000) translate(-374.500000, -278.500000)"/><path id="Line-Copy-54" d="M374.5,217.5 L374.5,277.5" transform="translate(374.500000, 247.500000) rotate(-90.000000) translate(-374.500000, -247.500000)"/><path id="Line-Copy-40" d="M297.5,200.5 L297.5,232.5" transform="translate(297.500000, 216.500000) rotate(-90.000000) translate(-297.500000, -216.500000)"/><path id="Line-Copy-42" d="M297.5,137.5 L297.5,169.5" transform="translate(297.500000, 153.500000) rotate(-90.000000) translate(-297.500000, -153.500000)"/><path id="Line-Copy-43" d="M297.5,106.5 L297.5,138.5" transform="translate(297.500000, 122.500000) rotate(-90.000000) translate(-297.500000, -122.500000)"/><path id="Line-Copy-47" d="M323,51 L323,72" transform="translate(323.000000, 61.500000) rotate(-90.000000) translate(-323.000000, -61.500000)"/><path id="Line-Copy-50" d="M359.5,108.5 L359.5,136.5" transform="translate(359.500000, 122.500000) rotate(-90.000000) translate(-359.500000, -122.500000)"/><path id="Line-Copy-53" d="M374.5,123.5 L374.5,183.5" transform="translate(374.500000, 153.500000) rotate(-90.000000) translate(-374.500000, -153.500000)"/><path id="Line-Copy-48" d="M391.5,16.5 L391.5,106.5" transform="translate(391.500000, 61.500000) rotate(-90.000000) translate(-391.500000, -61.500000)"/><path id="Line-Copy-27" d="M141,265 L141,294" transform="translate(141.000000, 279.500000) rotate(-90.000000) translate(-141.000000, -279.500000)"/><path id="Line-Copy-33" d="M140.5,203.5 L140.5,231.5" transform="translate(140.500000, 217.500000) rotate(-90.000000) translate(-140.500000, -217.500000)"/><path id="Line-Copy-22" d="M83.5,354.5 L83.5,394.5" transform="translate(83.500000, 374.500000) rotate(-90.000000) translate(-83.500000, -374.500000)"/><path id="Line-Copy-23" d="M120.5,370.5 L120.5,378.5" transform="translate(120.500000, 374.500000) rotate(-90.000000) translate(-120.500000, -374.500000)"/><path id="Line-Copy-19" d="M32,311 L32,374" transform="translate(32.000000, 342.500000) rotate(-90.000000) translate(-32.000000, -342.500000)"/><path id="Line-Copy-10" d="M79,108 L79,139" transform="translate(79.000000, 123.500000) rotate(-90.000000) translate(-79.000000, -123.500000)"/><path id="Line-Copy-31" d="M141,109 L141,138" transform="translate(141.000000, 123.500000) rotate(-90.000000) translate(-141.000000, -123.500000)"/><path id="Line-Copy-34" d="M141,141 L141,170" transform="translate(141.000000, 155.500000) rotate(-90.000000) translate(-141.000000, -155.500000)"/><path id="Line-Copy-5" d="M121,58 L121,67" transform="translate(121.000000, 62.500000) rotate(-90.000000) translate(-121.000000, -62.500000)"/></g><g id="ledders" transform="translate(125.500000, 123.000000)"><g id="blue-ledder"><rect id="Rectangle-Copy" width="29" height="62" x="0" y="0" fill="#007EFF"/><g id="Group" stroke="#FFF" stroke-linecap="square" stroke-width="2" transform="translate(0.500000, 10.500000)"><path id="Line-2-Copy-36" d="M19.5,0.5 L27.5,0.5"/><path id="Line-2-Copy-36" d="M9.5,10.5 L19.5,10.5"/><path id="Line-2-Copy-38" d="M0.5,21.5 L9.5,21.5"/><path id="Line-2-Copy-36" d="M14.5,5.5 L24.5,5.5" transform="translate(19.500000, 5.500000) rotate(90.000000) translate(-19.500000, -5.500000)"/><path id="Line-2-Copy-37" d="M4.5,15.5 L14.5,15.5" transform="translate(9.500000, 15.500000) rotate(90.000000) translate(-9.500000, -15.500000)"/><path id="Line-2-Copy-36" d="M19.5,20.5 L27.5,20.5"/><path id="Line-2-Copy-36" d="M9.5,30.5 L19.5,30.5"/><path id="Line-2-Copy-38" d="M0.5,41.5 L9.5,41.5"/><path id="Line-2-Copy-36" d="M14.5,25.5 L24.5,25.5" transform="translate(19.500000, 25.500000) rotate(90.000000) translate(-19.500000, -25.500000)"/><path id="Line-2-Copy-37" d="M4.5,35.5 L14.5,35.5" transform="translate(9.500000, 35.500000) rotate(90.000000) translate(-9.500000, -35.500000)"/></g></g><g id="yellow-ledder" transform="translate(157.000000, 0.000000)"><rect id="Rectangle-Copy" width="29" height="62" x="0" y="0" fill="#FED71A"/><g id="Group" stroke="#FFF" stroke-linecap="square" stroke-width="2" transform="translate(0.500000, 9.500000)"><path id="Line-2-Copy-36" d="M19.5,0.5 L27.5,0.5"/><path id="Line-2-Copy-36" d="M9.5,10.5 L19.5,10.5"/><path id="Line-2-Copy-38" d="M0.5,21.5 L9.5,21.5"/><path id="Line-2-Copy-36" d="M14.5,5.5 L24.5,5.5" transform="translate(19.500000, 5.500000) rotate(90.000000) translate(-19.500000, -5.500000)"/><path id="Line-2-Copy-37" d="M4.5,15.5 L14.5,15.5" transform="translate(9.500000, 15.500000) rotate(90.000000) translate(-9.500000, -15.500000)"/><path id="Line-2-Copy-36" d="M19.5,20.5 L27.5,20.5"/><path id="Line-2-Copy-36" d="M9.5,30.5 L19.5,30.5"/><path id="Line-2-Copy-38" d="M0.5,41.5 L9.5,41.5"/><path id="Line-2-Copy-36" d="M14.5,25.5 L24.5,25.5" transform="translate(19.500000, 25.500000) rotate(90.000000) translate(-19.500000, -25.500000)"/><path id="Line-2-Copy-37" d="M4.5,35.5 L14.5,35.5" transform="translate(9.500000, 35.500000) rotate(90.000000) translate(-9.500000, -35.500000)"/></g></g><g id="red-ledder" transform="translate(157.000000, 375.000000)"><rect id="Rectangle-Copy" width="29" height="59" x="0" y="0" fill="#EE1E1E"/><g id="Group" stroke="#FFF" stroke-linecap="square" stroke-width="2" transform="translate(0.500000, 7.500000)"><path id="Line-2-Copy-36" d="M19.5,0.5 L27.5,0.5"/><path id="Line-2-Copy-36" d="M9.5,10.5 L19.5,10.5"/><path id="Line-2-Copy-38" d="M0.5,21.5 L9.5,21.5"/><path id="Line-2-Copy-36" d="M14.5,5.5 L24.5,5.5" transform="translate(19.500000, 5.500000) rotate(90.000000) translate(-19.500000, -5.500000)"/><path id="Line-2-Copy-37" d="M4.5,15.5 L14.5,15.5" transform="translate(9.500000, 15.500000) rotate(90.000000) translate(-9.500000, -15.500000)"/><path id="Line-2-Copy-36" d="M19.5,20.5 L27.5,20.5"/><path id="Line-2-Copy-36" d="M9.5,30.5 L19.5,30.5"/><path id="Line-2-Copy-38" d="M0.5,41.5 L9.5,41.5"/><path id="Line-2-Copy-36" d="M14.5,25.5 L24.5,25.5" transform="translate(19.500000, 25.500000) rotate(90.000000) translate(-19.500000, -25.500000)"/><path id="Line-2-Copy-37" d="M4.5,35.5 L14.5,35.5" transform="translate(9.500000, 35.500000) rotate(90.000000) translate(-9.500000, -35.500000)"/></g></g><g id="green-ledder" transform="translate(0.000000, 376.000000)"><rect id="Rectangle-Copy" width="29" height="58" x="0" y="0" fill="#1E8252"/><g id="Group" stroke="#FFF" stroke-linecap="square" stroke-width="2" transform="translate(0.500000, 8.500000)"><path id="Line-2-Copy-36" d="M19.5,0.5 L27.5,0.5"/><path id="Line-2-Copy-36" d="M9.5,10.5 L19.5,10.5"/><path id="Line-2-Copy-38" d="M0.5,21.5 L9.5,21.5"/><path id="Line-2-Copy-36" d="M14.5,5.5 L24.5,5.5" transform="translate(19.500000, 5.500000) rotate(90.000000) translate(-19.500000, -5.500000)"/><path id="Line-2-Copy-37" d="M4.5,15.5 L14.5,15.5" transform="translate(9.500000, 15.500000) rotate(90.000000) translate(-9.500000, -15.500000)"/><path id="Line-2-Copy-36" d="M19.5,20.5 L27.5,20.5"/><path id="Line-2-Copy-36" d="M9.5,30.5 L19.5,30.5"/><path id="Line-2-Copy-38" d="M0.5,41.5 L9.5,41.5"/><path id="Line-2-Copy-36" d="M14.5,25.5 L24.5,25.5" transform="translate(19.500000, 25.500000) rotate(90.000000) translate(-19.500000, -25.500000)"/><path id="Line-2-Copy-37" d="M4.5,35.5 L14.5,35.5" transform="translate(9.500000, 35.500000) rotate(90.000000) translate(-9.500000, -35.500000)"/></g></g></g><g id="classes" transform="translate(1.500000, 93.000000)"><g id="room428" fill="#FFF" opacity=".1" transform="translate(344.000000, 154.000000)"><rect id="428" width="27" height="29" x="0" y="0"/></g><g id="room427" transform="translate(312.000000, 0.000000)"><path id="427" fill="#FFF" d="M59,91 L0,91 L0,32 L59,32 L59,48 L61,48 L61,0 L122,0 L122,91 L61,91 L61,82 L59,82 L59,91 Z" opacity=".1"/><text id="Library" fill="#D0D0D0" font-family="AdventPro-Regular, Advent Pro" font-size="14" font-weight="normal"><tspan x="42.597" y="68">Library</tspan></text></g><g id="room426" fill="#FFF" opacity=".1" transform="translate(344.000000, 310.000000)"><rect id="426" width="27" height="30" x="0" y="0"/></g><g id="room425" fill="#FFF" opacity=".1" transform="translate(63.000000, 155.000000)"><rect id="425" width="29" height="29" x="0" y="0"/></g><g id="room424" fill="#FFF" opacity=".1" transform="translate(32.000000, 186.000000)"><rect id="424" width="60" height="40" x="0" y="0"/></g><g id="WC423" transform="translate(63.000000, 311.000000)"><rect id="423" width="29" height="30" x="0" y="0" fill="#FFF" opacity=".1"/><text id="WC" fill="#D0D0D0" font-family="AdventPro-Regular, Advent Pro" font-size="14" font-weight="normal"><tspan x="6.299" y="18">WC</tspan></text></g><g id="WC422" transform="translate(126.000000, 311.000000)"><rect id="422" width="27" height="30" x="0" y="0" fill="#FFF" opacity=".1"/><text id="WC" fill="#D0D0D0" font-family="AdventPro-Regular, Advent Pro" font-size="14" font-weight="normal"><tspan x="5.299" y="18">WC</tspan></text></g><g id="WC421" transform="translate(281.000000, 154.000000)"><rect id="421" width="30" height="29" x="0" y="0" fill="#FFF" opacity=".1"/><text id="WC" fill="#D0D0D0" font-family="AdventPro-Regular, Advent Pro" font-size="14" font-weight="normal"><tspan x="6.299" y="18">WC</tspan></text></g><g id="WC420" transform="translate(281.000000, 310.000000)"><rect id="420" width="30" height="30" x="0" y="0" fill="#FFF" opacity=".1"/><text id="WC" fill="#D0D0D0" font-family="AdventPro-Regular, Advent Pro" font-size="14" font-weight="normal"><tspan x="6.299" y="18">WC</tspan></text></g><g id="WC419" transform="translate(126.000000, 155.000000)"><rect id="419" width="27" height="30" x="0" y="0" fill="#FFF" opacity=".1"/><text id="WC" fill="#D0D0D0" font-family="AdventPro-Regular, Advent Pro" font-size="14" font-weight="normal"><tspan x="5.299" y="18">WC</tspan></text></g><g id="M418" transform="translate(312.000000, 405.000000)"><rect id="418" width="59" height="57" x="0" y="0" fill="#FFF" opacity=".1"/><text id="M.418" fill="#D0D0D0" font-family="AdventPro-Regular, Advent Pro" font-size="14" font-weight="normal"><tspan x="17.07" y="32">M.418</tspan></text></g><g id="M417" transform="translate(373.000000, 434.000000)"><rect id="417" width="61" height="61" x="0" y="0" fill="#FFF" opacity=".1"/><text id="M.417" fill="#D0D0D0" font-family="AdventPro-Regular, Advent Pro" font-size="14" font-weight="normal"><tspan x="18.294" y="33">M.417</tspan></text></g><g id="M416" transform="translate(373.000000, 310.000000)"><rect id="416" width="61" height="122" x="0" y="0" fill="#FFF" opacity=".1"/><text id="M.416" fill="#D0D0D0" font-family="AdventPro-Regular, Advent Pro" font-size="14" font-weight="normal"><tspan x="17.077" y="64">M.416</tspan></text></g><g id="M415" transform="translate(344.000000, 279.000000)"><rect id="415" width="58" height="29" x="0" y="0" fill="#FFF" opacity=".1"/><text id="M.415" fill="#D0D0D0" font-family="AdventPro-Regular, Advent Pro" font-size="14" font-weight="normal"><tspan x="15.322" y="18">M.415</tspan></text></g><g id="M414" transform="translate(281.000000, 248.000000)"><rect id="414" width="30" height="60" x="0" y="0" fill="#FFF" opacity=".1"/><text id="M.414" fill="#D0D0D0" font-family="AdventPro-Regular, Advent Pro" font-size="14" font-weight="normal" transform="translate(15.000000, 30.000000) rotate(90.000000) translate(-15.000000, -30.000000)"><tspan x=".937" y="33">M.414</tspan></text></g><g id="M413" transform="translate(344.000000, 185.000000)"><rect id="413" width="58" height="92" x="0" y="0" fill="#FFF" opacity=".1"/><text id="M.413" fill="#D0D0D0" font-family="AdventPro-Regular, Advent Pro" font-size="14" font-weight="normal"><tspan x="15.322" y="49">M.413</tspan></text></g><g id="M412" transform="translate(281.000000, 185.000000)"><rect id="412" width="30" height="61" x="0" y="0" fill="#FFF" opacity=".1"/><text id="M.412" fill="#D0D0D0" font-family="AdventPro-Regular, Advent Pro" font-size="14" font-weight="normal" transform="translate(15.000000, 30.000000) rotate(90.000000) translate(-15.000000, -30.000000)"><tspan x="1.595" y="33">M.412</tspan></text></g><g id="M411" transform="translate(373.000000, 93.000000)"><rect id="411" width="61" height="90" x="0" y="0" fill="#FFF" opacity=".1"/><text id="M.411" fill="#D0D0D0" font-family="AdventPro-Regular, Advent Pro" font-size="14" font-weight="normal"><tspan x="17.925" y="48">M.411</tspan></text></g><g id="M410" transform="translate(95.000000, 32.000000)"><rect id="410" width="27" height="60" x="0" y="0" fill="#FFF" opacity=".1"/><text id="M.410" fill="#D0D0D0" font-family="AdventPro-Regular, Advent Pro" font-size="14" font-weight="normal" transform="translate(13.000000, 30.000000) rotate(90.000000) translate(-13.000000, -30.000000)"><tspan x="-1.455" y="33">M.410</tspan></text></g><g id="M409" transform="translate(63.000000, 32.000000)"><rect id="409" width="30" height="60" x="0" y="0" fill="#FFF" opacity=".1"/><text id="M.409" fill="#D0D0D0" font-family="AdventPro-Regular, Advent Pro" font-size="14" font-weight="normal" transform="translate(15.000000, 30.000000) rotate(90.000000) translate(-15.000000, -30.000000)"><tspan x="-1.303" y="33">M.409</tspan></text></g><g id="M408" transform="translate(0.000000, 1.000000)"><rect id="408" width="61" height="59" x="0" y="0" fill="#FFF" opacity=".1"/><text id="M.408" fill="#D0D0D0" font-family="AdventPro-Regular, Advent Pro" font-size="14" font-weight="normal"><tspan x="13.69" y="33">M.408</tspan></text></g><g id="M407" transform="translate(0.000000, 62.000000)"><rect id="407" width="61" height="122" x="0" y="0" fill="#FFF" opacity=".1"/><text id="M.407" fill="#D0D0D0" font-family="AdventPro-Regular, Advent Pro" font-size="14" font-weight="normal"><tspan x="14.914" y="64">M.407</tspan></text></g><g id="M406" transform="translate(126.000000, 187.000000)"><rect id="406" width="27" height="60" x="0" y="0" fill="#FFF" opacity=".1"/><text id="M.406" fill="#D0D0D0" font-family="AdventPro-Regular, Advent Pro" font-size="14" font-weight="normal" transform="translate(14.000000, 30.000000) rotate(90.000000) translate(-14.000000, -30.000000)"><tspan x="-2.303" y="33">M.406</tspan></text></g><g id="M405" transform="translate(126.000000, 249.000000)"><rect id="405" width="27" height="60" x="0" y="0" fill="#FFF" opacity=".1"/><text id="M.405" fill="#D0D0D0" font-family="AdventPro-Regular, Advent Pro" font-size="14" font-weight="normal" transform="translate(14.000000, 30.000000) rotate(90.000000) translate(-14.000000, -30.000000)"><tspan x="-2.058" y="33">M.405</tspan></text></g><g id="M404" transform="translate(32.000000, 228.000000)"><rect id="404" width="60" height="81" x="0" y="0" fill="#FFF" opacity=".1"/><text id="M.404" fill="#D0D0D0" font-family="AdventPro-Regular, Advent Pro" font-size="14" font-weight="normal"><tspan x="13.557" y="44">M.404</tspan></text></g><g id="M403" transform="translate(0.000000, 311.000000)"><rect id="403" width="61" height="61" x="0" y="0" fill="#FFF" opacity=".1"/><text id="M.403" fill="#D0D0D0" font-family="AdventPro-Regular, Advent Pro" font-size="14" font-weight="normal"><tspan x="14.942" y="33">M.403</tspan></text></g><g id="M402" transform="translate(0.000000, 374.000000)"><rect id="402" width="61" height="122" x="0" y="0" fill="#FFF" opacity=".1"/><text id="M.402" fill="#D0D0D0" font-family="AdventPro-Regular, Advent Pro" font-size="14" font-weight="normal"><tspan x="15.215" y="64">M.402</tspan></text></g><g id="M401" transform="translate(63.000000, 406.000000)"><rect id="401" width="59" height="56" x="0" y="0" fill="#FFF" opacity=".1"/><text id="M.401" fill="#D0D0D0" font-family="AdventPro-Regular, Advent Pro" font-size="14" font-weight="normal"><tspan x="14.545" y="31">M.401</tspan></text></g></g></g></g></g></svg>