<svg xmlns="http://www.w3.org/2000/svg" xmlns:xlink="http://www.w3.org/1999/xlink" width="437" height="684" class="svgFloor" version="1.1" viewBox="0 0 437 684"><g id="Page-1" fill="none" fill-rule="evenodd" stroke="none" stroke-width="1"><g id="1-floor" transform="translate(-421.000000, -39.000000)"><g id="1" transform="translate(421.000000, 39.000000)"><g id="extra" fill="#1E1E1E" transform="translate(154.646119, 0.000000)"><rect id="1" width="127.708" height="63.721" x="0" y="0" fill="none"/><rect id="2" width="127.708" height="64" x="0" y="620" fill="none"/></g><path id="Combined-Shape" stroke="#1E8252" stroke-width="2" d="M281.356164,619 L155.643836,619 L155.643836,495.666667 L124.714612,495.666667 L124.714612,553.354839 L63.8538813,553.354839 L63.8538813,587.172043 L0.997716895,587.172043 L0.997716895,401.177419 L32.9246575,401.177419 L32.9246575,276.849462 L0.997716895,276.849462 L0.997716895,92.844086 L63.8538813,92.844086 L63.8538813,124.672043 L124.714612,124.672043 L124.714612,185.344086 L155.643836,185.344086 L155.643836,64 L281.356164,64 L281.356164,185.344086 L312.285388,185.344086 L312.285388,124.672043 L373.146119,124.672043 L373.146119,92.844086 L436.002283,92.844086 L436.002283,276.849462 L404.076283,276.849086 L404.075342,401.177419 L436.002283,401.177419 L436.002283,587.172043 L371.150685,587.172043 L371.150685,553.354839 L312.285388,553.354839 L312.285388,495.666667 L281.356164,495.666667 L281.356164,619 Z"/><g id="ledders" transform="translate(125.712329, 124.454148)"><g id="blue-ledder"><rect id="Rectangle-Copy" width="28.934" height="60.734" x="0" y="0" fill="#007EFF"/><g id="Group" stroke="#FFF" stroke-linecap="square" stroke-width="2" transform="translate(0.498858, 6.471616)"><path id="Line-2-Copy-36" d="M20.4531963,0.497816594 L27.4372146,0.497816594"/><path id="Line-2-Copy-36" d="M10.4760274,10.4541485 L20.4531963,10.4541485"/><path id="Line-2-Copy-38" d="M0.498858447,21.4061135 L10.4760274,21.4061135"/><path id="Line-2-Copy-36" d="M15.4750304,5.47598253 L25.4313623,5.47598253" transform="translate(20.453196, 5.475983) rotate(90.000000) translate(-20.453196, -5.475983)"/><path id="Line-2-Copy-37" d="M5.49786146,15.4323144 L15.4541933,15.4323144" transform="translate(10.476027, 15.432314) rotate(90.000000) translate(-10.476027, -15.432314)"/><path id="Line-2-Copy-36" d="M20.4531963,20.4104803 L27.4372146,20.4104803"/><path id="Line-2-Copy-36" d="M10.4760274,30.3668122 L20.4531963,30.3668122"/><path id="Line-2-Copy-38" d="M0.498858447,41.3187773 L10.4760274,41.3187773"/><path id="Line-2-Copy-36" d="M15.4750304,25.3886463 L25.4313623,25.3886463" transform="translate(20.453196, 25.388646) rotate(90.000000) translate(-20.453196, -25.388646)"/><path id="Line-2-Copy-37" d="M5.49786146,35.3449782 L15.4541933,35.3449782" transform="translate(10.476027, 35.344978) rotate(90.000000) translate(-10.476027, -35.344978)"/></g></g><g id="green-ledder" transform="translate(0.000000, 373.362445)"><rect id="Rectangle-Copy" width="28.934" height="57.747" x="0" y="0" fill="#1E8234"/><g id="Group" stroke="#FFF" stroke-linecap="square" stroke-width="2" transform="translate(0.498858, 5.475983)"><path id="Line-2-Copy-36" d="M20.4531963,0.497816594 L27.4372146,0.497816594"/><path id="Line-2-Copy-36" d="M10.4760274,10.4541485 L20.4531963,10.4541485"/><path id="Line-2-Copy-38" d="M0.498858447,21.4061135 L10.4760274,21.4061135"/><path id="Line-2-Copy-36" d="M15.4750304,5.47598253 L25.4313623,5.47598253" transform="translate(20.453196, 5.475983) rotate(90.000000) translate(-20.453196, -5.475983)"/><path id="Line-2-Copy-37" d="M5.49786146,15.4323144 L15.4541933,15.4323144" transform="translate(10.476027, 15.432314) rotate(90.000000) translate(-10.476027, -15.432314)"/><path id="Line-2-Copy-36" d="M20.4531963,20.4104803 L27.4372146,20.4104803"/><path id="Line-2-Copy-36" d="M10.4760274,30.3668122 L20.4531963,30.3668122"/><path id="Line-2-Copy-38" d="M0.498858447,41.3187773 L10.4760274,41.3187773"/><path id="Line-2-Copy-36" d="M15.4750304,25.3886463 L25.4313623,25.3886463" transform="translate(20.453196, 25.388646) rotate(90.000000) translate(-20.453196, -25.388646)"/><path id="Line-2-Copy-37" d="M5.49786146,35.3449782 L15.4541933,35.3449782" transform="translate(10.476027, 35.344978) rotate(90.000000) translate(-10.476027, -35.344978)"/></g></g><g id="red-yellow" transform="translate(156.641553, 373.362445)"><rect id="Rectangle-Copy" width="28.934" height="57.747" x="0" y="0" fill="#EE1E1E"/><g id="Group" stroke="#FFF" stroke-linecap="square" stroke-width="2" transform="translate(0.498858, 5.475983)"><path id="Line-2-Copy-36" d="M20.4531963,0.497816594 L27.4372146,0.497816594"/><path id="Line-2-Copy-36" d="M10.4760274,10.4541485 L20.4531963,10.4541485"/><path id="Line-2-Copy-38" d="M0.498858447,21.4061135 L10.4760274,21.4061135"/><path id="Line-2-Copy-36" d="M15.4750304,5.47598253 L25.4313623,5.47598253" transform="translate(20.453196, 5.475983) rotate(90.000000) translate(-20.453196, -5.475983)"/><path id="Line-2-Copy-37" d="M5.49786146,15.4323144 L15.4541933,15.4323144" transform="translate(10.476027, 15.432314) rotate(90.000000) translate(-10.476027, -15.432314)"/><path id="Line-2-Copy-36" d="M20.4531963,20.4104803 L27.4372146,20.4104803"/><path id="Line-2-Copy-36" d="M10.4760274,30.3668122 L20.4531963,30.3668122"/><path id="Line-2-Copy-38" d="M0.498858447,41.3187773 L10.4760274,41.3187773"/><path id="Line-2-Copy-36" d="M15.4750304,25.3886463 L25.4313623,25.3886463" transform="translate(20.453196, 25.388646) rotate(90.000000) translate(-20.453196, -25.388646)"/><path id="Line-2-Copy-37" d="M5.49786146,35.3449782 L15.4541933,35.3449782" transform="translate(10.476027, 35.344978) rotate(90.000000) translate(-10.476027, -35.344978)"/></g></g><g id="yellow-ledder" transform="translate(156.641553, 0.000000)"><rect id="Rectangle-Copy" width="28.934" height="60.734" x="0" y="0" fill="#FED71A"/><g id="Group" stroke="#FFF" stroke-linecap="square" stroke-width="2" transform="translate(0.498858, 6.471616)"><path id="Line-2-Copy-36" d="M20.4531963,0.497816594 L27.4372146,0.497816594"/><path id="Line-2-Copy-36" d="M10.4760274,10.4541485 L20.4531963,10.4541485"/><path id="Line-2-Copy-38" d="M0.498858447,21.4061135 L10.4760274,21.4061135"/><path id="Line-2-Copy-36" d="M15.4750304,5.47598253 L25.4313623,5.47598253" transform="translate(20.453196, 5.475983) rotate(90.000000) translate(-20.453196, -5.475983)"/><path id="Line-2-Copy-37" d="M5.49786146,15.4323144 L15.4541933,15.4323144" transform="translate(10.476027, 15.432314) rotate(90.000000) translate(-10.476027, -15.432314)"/><path id="Line-2-Copy-36" d="M20.4531963,20.4104803 L27.4372146,20.4104803"/><path id="Line-2-Copy-36" d="M10.4760274,30.3668122 L20.4531963,30.3668122"/><path id="Line-2-Copy-38" d="M0.498858447,41.3187773 L10.4760274,41.3187773"/><path id="Line-2-Copy-36" d="M15.4750304,25.3886463 L25.4313623,25.3886463" transform="translate(20.453196, 25.388646) rotate(90.000000) translate(-20.453196, -25.388646)"/><path id="Line-2-Copy-37" d="M5.49786146,35.3449782 L15.4541933,35.3449782" transform="translate(10.476027, 35.344978) rotate(90.000000) translate(-10.476027, -35.344978)"/></g></g></g><g id="lines" stroke="#1E8252" stroke-linecap="square" stroke-width="2" transform="translate(0.498858, 64.218341)"><path id="Line-2-Copy" d="M250.925799,121.965066 L280.857306,121.965066"/><path id="Line-2-Copy-7" d="M249.928082,153.825328 L311.78653,153.825328"/><path id="Line-2-Copy-23" d="M372.64726,132.917031 L435.503425,132.917031"/><path id="Line-2-Copy-9" d="M277.864155,186.681223 L311.78653,186.681223"/><path id="Line-2-Copy-10" d="M249.928082,213.563319 L296.820776,213.563319"/><path id="Line-2-Copy-14" d="M329.745434,213.563319 L403.576484,213.563319"/><path id="Line-2-Copy-15" d="M311.78653,213.563319 L317.772831,213.563319"/><path id="Line-2-Copy-11" d="M249.928082,247.414847 L311.78653,247.414847"/><path id="Line-2-Copy-12" d="M249.928082,277.283843 L317.772831,277.283843"/><path id="Line-2-Copy-16" d="M329.745434,277.283843 L403.576484,277.283843"/><path id="Line-2-Copy-13" d="M249.928082,308.148472 L311.78653,308.148472"/><path id="Line-2-Copy-8" d="M249.928082,338.017467 L403.576484,338.017467"/><path id="Line-2-Copy-17" d="M249.928082,369.877729 L339.722603,369.877729"/><path id="Line-2-Copy-18" d="M370.651826,369.877729 L434.505708,369.877729"/><path id="Line-2-Copy-19" d="M329.745434,401.737991 L370.651826,401.737991"/><path id="Line-2-Copy-21" d="M370.651826,431.606987 L435.503425,431.606987"/><path id="Line-2-Copy-22" d="M370.651826,490.349345 L435.503425,490.349345"/><path id="Line-2-Copy-20" d="M311.78653,401.737991 L316.775114,401.737991"/><path id="Line-2-Copy-2" d="M155.144977,121.965066 L185.076484,121.965066"/><path id="Line-2-Copy-3" d="M124.215753,153.825328 L185.076484,153.825328"/><path id="Line-2-Copy-5" d="M32.4257991,213.563319 L185.076484,213.563319"/><path id="Line-2-Copy-6" d="M32.4257991,338.017467 L185.076484,338.017467"/><path id="Line-2-Copy-24" d="M63.3550228,369.877729 L132.197489,369.877729"/><path id="Line-2-Copy-26" d="M0.498858447,401.737991 L63.3550228,401.737991"/><path id="Line-2-Copy-29" d="M83.3093607,432.60262 L124.215753,432.60262"/><path id="Line-2-Copy-28" d="M93.2865297,401.737991 L124.215753,401.737991"/><path id="Line-2-Copy-27" d="M0.498858447,432.60262 L71.336758,432.60262"/><path id="Line-2-Copy-25" d="M145.167808,369.877729 L185.076484,369.877729"/><path id="Line-2-Copy-4" d="M124.215753,184.689956 L154.14726,184.689956"/><path id="Line-Copy-4" d="M249.928082,71.1877729 L249.928082,121.965066"/><path id="Line-Copy-13" d="M311.78653,207.58952 L311.78653,247.414847"/><path id="Line-Copy-31" d="M63.3550228,484.375546 L63.3550228,490.349345"/><path id="Line-Copy-32" d="M63.3550228,423.641921 L63.3550228,450.524017"/><path id="Line-Copy-33" d="M63.3550228,392.777293 L63.3550228,409.703057"/><path id="Line-Copy-39" d="M124.215753,401.737991 L124.215753,432.60262"/><path id="Line-Copy-38" d="M93.2865297,401.737991 L93.2865297,489.353712"/><path id="Line-Copy-34" d="M63.3550228,338.017467 L63.3550228,378.838428"/><path id="Line-Copy-35" d="M93.2865297,338.017467 L93.2865297,369.877729"/><path id="Line-Copy-36" d="M123.218037,338.017467 L123.218037,369.877729"/><path id="Line-Copy-37" d="M154.14726,338.017467 L154.14726,369.877729"/><path id="Line-Copy-18" d="M339.722603,213.563319 L339.722603,225.510917"/><path id="Line-Copy-30" d="M372.64726,197.633188 L372.64726,213.563319"/><path id="Line-Copy-19" d="M339.722603,266.331878 L339.722603,287.240175"/><path id="Line-Copy-20" d="M276.866438,338.017467 L276.866438,369.877729"/><path id="Line-Copy-21" d="M339.722603,338.017467 L339.722603,369.877729"/><path id="Line-Copy-22" d="M370.651826,338.017467 L370.651826,347.973799"/><path id="Line-Copy-25" d="M339.722603,369.877729 L339.722603,379.834061"/><path id="Line-Copy-26" d="M339.722603,391.781659 L339.722603,401.737991"/><path id="Line-Copy-27" d="M311.78653,401.737991 L311.78653,431.606987"/><path id="Line-Copy-23" d="M370.651826,360.917031 L370.651826,379.834061"/><path id="Line-Copy-24" d="M370.651826,393.772926 L370.651826,431.606987"/><path id="Line-Copy-15" d="M311.78653,153.825328 L311.78653,164.777293"/><path id="Line-Copy-16" d="M311.78653,176.724891 L311.78653,195.641921"/><path id="Line-Copy-17" d="M277.864155,154.820961 L277.864155,213.563319"/><path id="Line-Copy-28" d="M372.64726,61.231441 L372.64726,102.052402"/><path id="Line-Copy-29" d="M372.64726,114.995633 L372.64726,184.689956"/><path id="Line-Copy-14" d="M311.78653,258.366812 L311.78653,338.017467"/><path id="Line-Copy-12" d="M249.928082,153.825328 L249.928082,338.017467"/><path id="Line-Copy-6" d="M249.928082,0.497816594 L249.928082,60.2358079"/><path id="Line-Copy-5" d="M185.076484,71.1877729 L185.076484,121.965066"/><path id="Line-Copy-9" d="M185.076484,153.825328 L185.076484,295.20524"/><path id="Line-Copy-8" d="M124.215753,122.960699 L124.215753,184.689956"/><path id="Line-Copy-10" d="M154.14726,184.689956 L154.14726,213.563319"/><path id="Line-Copy-11" d="M185.076484,328.061135 L185.076484,338.017467"/><path id="Line-Copy-7" d="M185.076484,0.497816594 L185.076484,60.2358079"/></g><g id="classes" transform="translate(0.997717, 94.585153)"><g id="F128" transform="translate(371.150685, 460.978166)"><rect id="128" width="62.856" height="31.86" x="0" y="0" fill="#FFF" opacity=".1"/><text id="Kitchen" fill="#D0D0D0" font-family="AdventPro-Regular, Advent Pro" font-size="14" font-weight="normal"><tspan x="11.896" y="18.974">Kitchen</tspan></text></g><g id="F127" transform="translate(312.285388, 372.366812)"><path id="127" fill="#FFF" d="M0,86.6200873 L0,0 L56.869863,0 L56.869863,29.8689956 L121.721461,29.8689956 L121.721461,86.6200873 L56.869863,86.6200873 L0,86.6200873 Z" opacity=".1"/><text id="Management-Team" fill="#D0D0D0" font-family="AdventPro-Regular, Advent Pro" font-size="14" font-weight="normal"><tspan x="24.761" y="53.821">Management</tspan> <tspan x="45.292" y="69.821">Team</tspan></text></g><g id="F126" transform="translate(371.150685, 340.506550)"><rect id="Rectangle" width="62.856" height="59.738" x="0" y="0" fill="#FFF" opacity=".1"/><text id="126" fill="#D0D0D0" font-family="AdventPro-Regular, Advent Pro" font-size="14" font-weight="normal"><tspan x="16.275" y="26.939">Shool</tspan> <tspan x="16.758" y="42.939">Office</tspan></text></g><g id="F125" fill="#FFF" opacity=".1" transform="translate(371.150685, 308.646288)"><rect id="125" width="62.856" height="29.869" x="0" y="0"/></g><g id="F124" fill="#FFF" opacity=".1" transform="translate(340.221461, 308.646288)"><rect id="124" width="28.934" height="62.725" x="0" y="0"/></g><g id="F123" fill="#FFF" opacity=".1" transform="translate(277.365297, 308.646288)"><rect id="123" width="60.861" height="29.869" x="0" y="0"/></g><g id="F122" fill="#FFF" opacity=".1" transform="translate(250.426941, 278.777293)"><rect id="122" width="59.863" height="27.878" x="0" y="0"/></g><g id="F121" fill="#FFF" opacity=".1" transform="translate(312.285388, 247.912664)"><path id="121" d="M0,58.7423581 L0,0 L25.9406393,0 L25.9406393,9.95633188 L27.9360731,9.95633188 L27.9360731,0 L89.7945205,0 L89.7945205,58.7423581 L27.9360731,58.7423581 L0,58.7423581 Z"/></g><g id="F120" fill="#FFF" opacity=".1" transform="translate(250.426941, 247.912664)"><rect id="120" width="59.863" height="28.873" x="0" y="0"/></g><g id="F119" fill="#FFF" opacity=".1" transform="translate(250.426941, 218.043668)"><rect id="119" width="59.863" height="27.878" x="0" y="0"/></g><g id="F118" fill="#FFF" opacity=".1" transform="translate(312.285388, 184.192140)"><path id="118" d="M25.9406393,61.7292576 L0,61.7292576 L0,0 L25.9406393,0 L25.9406393,11.9475983 L27.9360731,11.9475983 L27.9360731,0 L89.7945205,0 L89.7945205,61.7292576 L27.9360731,61.7292576 L27.9360731,50.7772926 L25.9406393,50.7772926 L25.9406393,61.7292576 Z"/></g><g id="F117" fill="#FFF" opacity=".1" transform="translate(250.426941, 184.192140)"><rect id="117" width="59.863" height="31.86" x="0" y="0"/></g><g id="F116" fill="#FFF" opacity=".1" transform="translate(278.363014, 157.310044)"><rect id="116" width="31.927" height="24.891" x="0" y="0"/></g><g id="F115" fill="#FFF" opacity=".1" transform="translate(278.363014, 124.454148)"><rect id="115" width="31.927" height="30.865" x="0" y="0"/></g><g id="F114" fill="#FFF" opacity=".1" transform="translate(250.426941, 124.454148)"><rect id="114" width="25.941" height="57.747" x="0" y="0"/></g><g id="F113" fill="#FFF" opacity=".1" transform="translate(373.146119, 103.545852)"><rect id="113" width="60.861" height="78.655" x="0" y="0"/></g><g id="F112" fill="#FFF" opacity=".1" transform="translate(373.146119, 0.000000)"><rect id="112" width="60.861" height="101.555" x="0" y="0"/></g><g id="F111" fill="#FFF" opacity=".1" transform="translate(124.714612, 124.454148)"><path id="111" d="M0,28.8733624 L0,0 L58.8652968,0 L58.8652968,28.8733624 L58.8652968,57.7467249 L29.9315068,57.7467249 L29.9315068,28.8733624 L0,28.8733624 Z"/></g><g id="F110"><path id="110" fill="#FFF" d="M0,182.200873 L0,0 L61.8584475,0 L61.8584475,31.860262 L122.719178,31.860262 L122.719178,155.318777 L152.650685,155.318777 L152.650685,182.200873 L122.719178,182.200873 L0,182.200873 Z" opacity=".1"/><text id="Maintenance" fill="#D0D0D0" font-family="AdventPro-Regular, Advent Pro" font-size="14" font-weight="normal"><tspan x="32.545" y="101.611">Maintenance</tspan></text></g><g id="F109" transform="translate(32.924658, 184.192140)"><rect id="109" width="150.655" height="122.463" x="0" y="0" fill="#FFF" opacity=".1"/><text id="Cafeteria" fill="#D0D0D0" font-family="AdventPro-Regular, Advent Pro" font-size="14" font-weight="normal"><tspan x="52.128" y="64.773">Cafeteria</tspan></text></g><g id="F108" fill="#FFF" opacity=".1" transform="translate(123.716895, 308.646288)"><rect id="108" width="28.934" height="29.869" x="0" y="0"/></g><g id="F107" fill="#FFF" opacity=".1" transform="translate(93.785388, 308.646288)"><rect id="107" width="27.936" height="29.869" x="0" y="0"/></g><g id="F106" fill="#FFF" opacity=".1" transform="translate(63.853881, 308.646288)"><rect id="106" width="27.936" height="29.869" x="0" y="0"/></g><g id="F105" transform="translate(0.997717, 308.646288)"><rect id="105" width="60.861" height="61.729" x="0" y="0" fill="#FFF" opacity=".1"/><text id="Medical-Room" fill="#D0D0D0" font-family="AdventPro-Regular, Advent Pro" font-size="14" font-weight="normal"><tspan x="10.214" y="27.934">Medical</tspan> <tspan x="14.561" y="43.934">Room</tspan></text></g><g id="F104" fill="#FFF" opacity=".1" transform="translate(0.997717, 372.366812)"><rect id="104" width="60.861" height="28.873" x="0" y="0"/></g><g id="F103" transform="translate(0.997717, 403.231441)"><path id="103" fill="#FFF" d="M60.8607306,89.6069869 L0,89.6069869 L0,0 L60.8607306,0 L60.8607306,17.9213974 L62.8561644,17.9213974 L62.8561644,0 L90.7922374,0 L90.7922374,55.7554585 L62.8561644,55.7554585 L62.8561644,49.7816594 L60.8607306,49.7816594 L60.8607306,89.6069869 Z" opacity=".1"/><text id="Library" fill="#D0D0D0" font-family="AdventPro-Regular, Advent Pro" font-size="14" font-weight="normal"><tspan x="14.522" y="46.852">Library</tspan></text></g><g id="F102" fill="#FFF" opacity=".1" transform="translate(93.785388, 372.366812)"><rect id="102" width="28.934" height="28.873" x="0" y="0"/></g><g id="F101" fill="#FFF" opacity=".1" transform="translate(93.785388, 403.231441)"><rect id="101" width="28.934" height="55.755" x="0" y="0"/></g></g></g></g></g></svg>