
<svg width="434px" height="683px" viewBox="0 -67 434 683" version="1.1" xmlns="http://www.w3.org/2000/svg" xmlns:xlink="http://www.w3.org/1999/xlink">
    <g id="Page-1" stroke="none" stroke-width="1" fill="none" fill-rule="evenodd">
        <g id="1-floor" transform="translate(-422.000000, -102.000000)" fill="#1E1E1E">
            <path d="M703,659 L575,659 L575,534.37 L546,534.370221 L546,592.136821 L485,592.136821 L485,626 L422,626 L422,439.752515 L454,439.752515 L454,315.255533 L422,315.255533 L422,131 L485,131 L485,162.871227 L546,162.871227 L546,223.625755 L575,223.625 L575,102 L703,102 L703,222.370221 L732,222.370221 L732,162 L793,162 L793,130 L856,130 L856,314.255533 L824,314.255533 L824,438.752515 L856,438.752515 L856,625 L793,625 L793,591.136 L732,591.136821 L732,533.370221 L703,533.370221 L703,659 Z" id="back1"></path>
        </g>
    </g>
</svg>