
<svg width="434px" height="683px" viewBox="0 0 434 683" version="1.1" xmlns="http://www.w3.org/2000/svg" xmlns:xlink="http://www.w3.org/1999/xlink">
    <g id="Page-1" stroke="none" stroke-width="1" fill="none" fill-rule="evenodd">
        <g id="2-floor" transform="translate(-423.000000, -39.000000)" fill="#1E1E1E">
            <path d="M702,722 L578,722 L578,535.370221 L547,535.370221 L547,593.136821 L486,593.136821 L486,627 L423,627 L423,440.752515 L455,440.752515 L455,316.255533 L423,316.255533 L423,132 L486,132 L486,163.871227 L547,163.871227 L547,224.625755 L578,224.625755 L578,39 L702,39 L702,223.625755 L733,223.625755 L733,162.871227 L794,162.871 L794,131 L857,131 L857,315.255533 L825,315.255533 L825,439.752515 L857,439.752515 L857,626 L794,626 L794,592.136 L733,592.136821 L733,534.370221 L702,534.370221 L702,722 Z" id="back234"></path>
        </g>
    </g>
</svg>