<svg xmlns="http://www.w3.org/2000/svg" xmlns:xlink="http://www.w3.org/1999/xlink" id="Capa_1" x="0" y="0" version="1.1" viewBox="0 0 508.1 508.1" xml:space="preserve" style="enable-background:new 0 0 508.1 508.1"><g><g><path d="M311.4,229.4h16.4c-0.1-27.1,22-49.1,49.1-49.1v-16.4C340.8,163.9,311.4,193.3,311.4,229.4z"/></g></g><g><g><rect width="114.7" height="16.4" x="49.2" y="204.8"/></g></g><g><g><rect width="114.7" height="16.4" x="49.2" y="254"/></g></g><g><g><rect width="114.7" height="16.4" x="49.2" y="303.2"/></g></g><g><g><path d="M483.4,163.9H450c-18-20.1-44.1-32.8-73.1-32.8s-55,12.7-73,32.8H24.6C11,163.9,0,174.9,0,188.5V336 c0,13.6,11,24.6,24.6,24.6h41V377H82v-16.4h344.1V377h16.4v-16.4h41c13.6,0,24.6-11,24.6-24.6V188.5 C508,174.9,497,163.9,483.4,163.9z M376.9,147.5c45.2,0,81.9,36.8,81.9,81.9c0,45.2-36.8,81.9-81.9,81.9 c-45.2,0-81.9-36.8-81.9-81.9C295,184.2,331.7,147.5,376.9,147.5z M491.6,335.9c0,4.5-3.7,8.2-8.2,8.2H24.6 c-4.5,0-8.2-3.7-8.2-8.2V188.5c0-4.5,3.7-8.2,8.2-8.2h267.2c-8.6,14.9-13.2,31.8-13.2,49.2c0,54.2,44.1,98.3,98.3,98.3 s98.3-44.1,98.3-98.3c0-17.3-4.6-34.3-13.2-49.2h21.4c4.5,0,8.2,3.7,8.2,8.2V335.9z"/></g></g></svg>